<?xml version="1.0" standalone="no"?>
<!DOCTYPE svg PUBLIC "-//W3C//DTD SVG 20010904//EN"
 "http://www.w3.org/TR/2001/REC-SVG-20010904/DTD/svg10.dtd">
<svg version="1.0" xmlns="http://www.w3.org/2000/svg"
 width="870.000000pt" height="870.000000pt" viewBox="0 0 870.000000 870.000000"
 preserveAspectRatio="xMidYMid meet">
<metadata>
Created by potrace 1.14, written by Peter Selinger 2001-2017
</metadata>
<g transform="translate(0.000000,870.000000) scale(0.100000,-0.100000)"
fill="#000000" stroke="none">
<path d="M4200 8194 c-221 -57 -398 -235 -455 -454 -24 -91 -16 -270 15 -359
30 -84 108 -198 177 -260 64 -57 191 -123 273 -142 140 -32 315 -6 446 67 124
68 237 202 284 335 31 89 39 268 15 358 -59 226 -230 396 -460 456 -74 19
-221 19 -295 -1z"/>
<path d="M3008 6450 c-15 -9 -18 -26 -18 -94 0 -58 4 -87 14 -95 8 -7 102 -15
247 -21 343 -15 480 -34 546 -77 31 -20 57 -73 72 -143 16 -75 30 -475 31
-872 l0 -328 -27 -6 c-281 -64 -484 -139 -698 -257 -101 -56 -297 -187 -301
-202 -5 -13 112 -96 246 -176 199 -118 450 -219 678 -270 l104 -24 -5 -685
c-3 -451 -9 -705 -16 -744 -16 -81 -48 -152 -82 -180 -54 -46 -222 -70 -564
-81 -104 -4 -202 -11 -217 -17 -27 -10 -28 -12 -28 -93 0 -63 4 -86 16 -96 12
-10 143 -10 720 1 579 10 814 10 1325 -1 431 -9 626 -9 637 -2 13 8 18 29 20
95 3 85 3 85 -25 96 -15 6 -118 13 -228 17 -414 13 -546 41 -595 127 -48 86
-52 144 -57 878 l-5 685 104 24 c221 50 457 143 656 258 131 75 273 175 269
188 -5 15 -201 147 -302 202 -214 118 -417 193 -697 257 l-28 6 0 413 c1 430
11 694 30 787 15 69 53 136 88 154 74 38 184 53 506 66 159 6 265 15 273 21 9
8 13 38 13 95 0 72 -3 85 -19 94 -18 9 -355 5 -1135 -14 -180 -5 -811 4 -1331
19 -133 3 -206 2 -217 -5z"/>
<path d="M4135 999 c-296 -28 -586 -109 -850 -239 -150 -73 -408 -237 -402
-254 5 -18 154 -121 267 -186 266 -152 583 -257 910 -301 122 -17 458 -17 580
0 327 44 644 149 910 301 113 65 261 168 267 186 5 16 -235 171 -381 244 -396
200 -864 290 -1301 249z"/>
</g>
</svg>
