<?xml version="1.0" standalone="no"?>
<!DOCTYPE svg PUBLIC "-//W3C//DTD SVG 20010904//EN"
 "http://www.w3.org/TR/2001/REC-SVG-20010904/DTD/svg10.dtd">
<svg version="1.0" xmlns="http://www.w3.org/2000/svg"
 width="1063.000000pt" height="1063.000000pt" viewBox="0 0 1063.000000 1063.000000"
 preserveAspectRatio="xMidYMid meet">
<metadata>
Created by potrace 1.14, written by Peter Selinger 2001-2017
</metadata>
<g transform="translate(0.000000,1063.000000) scale(0.100000,-0.100000)"
fill="#000000" stroke="none">
<path d="M5247 10623 c-1 0 -57 -4 -124 -8 -67 -3 -132 -8 -145 -10 -12 -2
-44 -6 -69 -9 -735 -101 -1415 -480 -1883 -1051 -94 -114 -186 -240 -186 -254
0 -5 -3 -11 -8 -13 -9 -4 -58 -81 -107 -168 -32 -57 -127 -246 -130 -260 -1
-3 -6 -16 -12 -30 -68 -160 -160 -453 -176 -565 -3 -16 -10 -57 -16 -90 -19
-107 -25 -155 -36 -280 -6 -66 -6 -410 -1 -455 3 -19 7 -62 11 -95 13 -125 27
-207 70 -397 12 -56 52 -185 85 -279 94 -263 199 -461 400 -754 109 -158 355
-415 527 -551 l53 -42 -88 -73 c-144 -121 -304 -286 -438 -451 -217 -270 -426
-687 -523 -1045 -31 -112 -65 -279 -76 -372 -4 -30 -8 -61 -10 -70 -20 -110
-21 -502 -1 -661 2 -19 7 -60 11 -90 7 -60 41 -236 49 -260 3 -8 8 -26 10 -40
28 -148 138 -444 239 -640 232 -453 593 -853 1022 -1132 254 -165 563 -305
825 -373 8 -2 30 -8 48 -14 17 -5 32 -8 32 -5 0 3 8 0 18 -5 10 -5 38 -12 62
-16 25 -3 52 -8 60 -10 8 -2 31 -7 50 -10 19 -3 46 -7 60 -10 125 -23 218 -29
450 -30 237 0 348 7 480 31 14 2 41 7 60 10 173 28 462 115 645 194 142 61
435 221 443 242 2 4 9 8 15 8 7 0 23 9 37 20 14 11 66 50 115 87 50 37 95 72
101 77 7 6 42 38 80 71 108 95 220 211 319 330 28 33 52 62 55 65 14 13 132
184 179 258 90 143 198 363 256 522 15 41 33 91 41 110 11 29 35 111 50 170 2
8 15 65 28 125 24 108 32 150 42 230 3 22 7 51 10 65 16 101 23 437 11 565 -4
39 -9 93 -12 120 -43 436 -218 909 -481 1306 -152 228 -417 517 -607 662 l-47
36 87 72 c394 326 715 783 891 1269 33 90 96 304 105 355 3 17 13 68 22 115 9
47 18 103 21 125 2 22 7 54 9 70 24 158 24 526 0 695 -3 19 -7 51 -10 70 -6
43 -13 81 -25 145 -6 28 -12 59 -14 70 -53 268 -204 646 -357 893 -35 57 -68
110 -74 120 -21 36 -155 211 -216 282 -65 76 -213 226 -285 290 -99 88 -292
231 -399 297 -115 70 -279 155 -410 214 -122 54 -391 138 -525 165 -14 3 -36
7 -50 10 -34 7 -196 32 -245 38 -80 10 -392 25 -398 19z"/>
</g>
</svg>
